<svg width="364" height="496" viewBox="0 0 364 496" fill="none" xmlns="http://www.w3.org/2000/svg">
<rect x="352" width="12" height="12" rx="6" fill="currentColor"/>
<rect x="352" y="44" width="12" height="12" rx="6" fill="currentColor"/>
<rect x="352" y="88" width="12" height="12" rx="6" fill="currentColor"/>
<rect x="352" y="132" width="12" height="12" rx="6" fill="currentColor"/>
<rect x="88" width="12" height="12" rx="6" fill="currentColor"/>
<rect x="88" y="44" width="12" height="12" rx="6" fill="currentColor"/>
<rect x="132" width="12" height="12" rx="6" fill="currentColor"/>
<rect x="132" y="44" width="12" height="12" rx="6" fill="currentColor"/>
<rect width="12" height="12" rx="6" fill="currentColor"/>
<rect y="44" width="12" height="12" rx="6" fill="currentColor"/>
<rect x="44" width="12" height="12" rx="6" fill="currentColor"/>
<rect x="44" y="44" width="12" height="12" rx="6" fill="currentColor"/>
<rect x="88" y="88" width="12" height="12" rx="6" fill="currentColor"/>
<rect x="88" y="132" width="12" height="12" rx="6" fill="currentColor"/>
<rect x="132" y="88" width="12" height="12" rx="6" fill="currentColor"/>
<rect x="132" y="132" width="12" height="12" rx="6" fill="currentColor"/>
<rect y="88" width="12" height="12" rx="6" fill="currentColor"/>
<rect y="132" width="12" height="12" rx="6" fill="currentColor"/>
<rect x="44" y="88" width="12" height="12" rx="6" fill="currentColor"/>
<rect x="44" y="132" width="12" height="12" rx="6" fill="currentColor"/>
<rect x="264" width="12" height="12" rx="6" fill="currentColor"/>
<rect x="264" y="44" width="12" height="12" rx="6" fill="currentColor"/>
<rect x="308" width="12" height="12" rx="6" fill="currentColor"/>
<rect x="308" y="44" width="12" height="12" rx="6" fill="currentColor"/>
<rect x="176" width="12" height="12" rx="6" fill="currentColor"/>
<rect x="176" y="44" width="12" height="12" rx="6" fill="currentColor"/>
<rect x="220" width="12" height="12" rx="6" fill="currentColor"/>
<rect x="220" y="44" width="12" height="12" rx="6" fill="currentColor"/>
<rect x="264" y="88" width="12" height="12" rx="6" fill="currentColor"/>
<rect x="264" y="132" width="12" height="12" rx="6" fill="currentColor"/>
<rect x="308" y="88" width="12" height="12" rx="6" fill="currentColor"/>
<rect x="308" y="132" width="12" height="12" rx="6" fill="currentColor"/>
<rect x="176" y="88" width="12" height="12" rx="6" fill="currentColor"/>
<rect x="176" y="132" width="12" height="12" rx="6" fill="currentColor"/>
<rect x="220" y="88" width="12" height="12" rx="6" fill="currentColor"/>
<rect x="220" y="132" width="12" height="12" rx="6" fill="currentColor"/>
<rect x="352" y="176" width="12" height="12" rx="6" fill="currentColor"/>
<rect x="352" y="220" width="12" height="12" rx="6" fill="currentColor"/>
<rect x="352" y="264" width="12" height="12" rx="6" fill="currentColor"/>
<rect x="352" y="308" width="12" height="12" rx="6" fill="currentColor"/>
<rect x="352" y="352" width="12" height="12" rx="6" fill="currentColor"/>
<rect x="352" y="396" width="12" height="12" rx="6" fill="currentColor"/>
<rect x="352" y="440" width="12" height="12" rx="6" fill="currentColor"/>
<rect x="352" y="484" width="12" height="12" rx="6" fill="currentColor"/>
<rect x="88" y="176" width="12" height="12" rx="6" fill="currentColor"/>
<rect x="88" y="220" width="12" height="12" rx="6" fill="currentColor"/>
<rect x="132" y="176" width="12" height="12" rx="6" fill="currentColor"/>
<rect x="132" y="220" width="12" height="12" rx="6" fill="currentColor"/>
<rect y="176" width="12" height="12" rx="6" fill="currentColor"/>
<rect y="220" width="12" height="12" rx="6" fill="currentColor"/>
<rect x="44" y="176" width="12" height="12" rx="6" fill="currentColor"/>
<rect x="44" y="220" width="12" height="12" rx="6" fill="currentColor"/>
<rect x="88" y="264" width="12" height="12" rx="6" fill="currentColor"/>
<rect x="88" y="308" width="12" height="12" rx="6" fill="currentColor"/>
<rect x="132" y="264" width="12" height="12" rx="6" fill="currentColor"/>
<rect x="132" y="308" width="12" height="12" rx="6" fill="currentColor"/>
<rect y="264" width="12" height="12" rx="6" fill="currentColor"/>
<rect y="308" width="12" height="12" rx="6" fill="currentColor"/>
<rect x="44" y="264" width="12" height="12" rx="6" fill="currentColor"/>
<rect x="44" y="308" width="12" height="12" rx="6" fill="currentColor"/>
<rect x="264" y="176" width="12" height="12" rx="6" fill="currentColor"/>
<rect x="264" y="220" width="12" height="12" rx="6" fill="currentColor"/>
<rect x="308" y="176" width="12" height="12" rx="6" fill="currentColor"/>
<rect x="308" y="220" width="12" height="12" rx="6" fill="currentColor"/>
<rect x="176" y="176" width="12" height="12" rx="6" fill="currentColor"/>
<rect x="176" y="220" width="12" height="12" rx="6" fill="currentColor"/>
<rect x="220" y="176" width="12" height="12" rx="6" fill="currentColor"/>
<rect x="220" y="220" width="12" height="12" rx="6" fill="currentColor"/>
<rect x="264" y="264" width="12" height="12" rx="6" fill="currentColor"/>
<rect x="264" y="308" width="12" height="12" rx="6" fill="currentColor"/>
<rect x="308" y="264" width="12" height="12" rx="6" fill="currentColor"/>
<rect x="308" y="308" width="12" height="12" rx="6" fill="currentColor"/>
<rect x="176" y="264" width="12" height="12" rx="6" fill="currentColor"/>
<rect x="176" y="308" width="12" height="12" rx="6" fill="currentColor"/>
<rect x="220" y="264" width="12" height="12" rx="6" fill="currentColor"/>
<rect x="220" y="308" width="12" height="12" rx="6" fill="currentColor"/>
<rect x="88" y="352" width="12" height="12" rx="6" fill="currentColor"/>
<rect x="88" y="396" width="12" height="12" rx="6" fill="currentColor"/>
<rect x="132" y="352" width="12" height="12" rx="6" fill="currentColor"/>
<rect x="132" y="396" width="12" height="12" rx="6" fill="currentColor"/>
<rect y="352" width="12" height="12" rx="6" fill="currentColor"/>
<rect y="396" width="12" height="12" rx="6" fill="currentColor"/>
<rect x="44" y="352" width="12" height="12" rx="6" fill="currentColor"/>
<rect x="44" y="396" width="12" height="12" rx="6" fill="currentColor"/>
<rect x="88" y="440" width="12" height="12" rx="6" fill="currentColor"/>
<rect x="88" y="484" width="12" height="12" rx="6" fill="currentColor"/>
<rect x="132" y="440" width="12" height="12" rx="6" fill="currentColor"/>
<rect x="132" y="484" width="12" height="12" rx="6" fill="currentColor"/>
<rect y="440" width="12" height="12" rx="6" fill="currentColor"/>
<rect y="484" width="12" height="12" rx="6" fill="currentColor"/>
<rect x="44" y="440" width="12" height="12" rx="6" fill="currentColor"/>
<rect x="44" y="484" width="12" height="12" rx="6" fill="currentColor"/>
<rect x="264" y="352" width="12" height="12" rx="6" fill="currentColor"/>
<rect x="264" y="396" width="12" height="12" rx="6" fill="currentColor"/>
<rect x="308" y="352" width="12" height="12" rx="6" fill="currentColor"/>
<rect x="308" y="396" width="12" height="12" rx="6" fill="currentColor"/>
<rect x="176" y="352" width="12" height="12" rx="6" fill="currentColor"/>
<rect x="176" y="396" width="12" height="12" rx="6" fill="currentColor"/>
<rect x="220" y="352" width="12" height="12" rx="6" fill="currentColor"/>
<rect x="220" y="396" width="12" height="12" rx="6" fill="currentColor"/>
<rect x="264" y="440" width="12" height="12" rx="6" fill="currentColor"/>
<rect x="264" y="484" width="12" height="12" rx="6" fill="currentColor"/>
<rect x="308" y="440" width="12" height="12" rx="6" fill="currentColor"/>
<rect x="308" y="484" width="12" height="12" rx="6" fill="currentColor"/>
<rect x="176" y="440" width="12" height="12" rx="6" fill="currentColor"/>
<rect x="176" y="484" width="12" height="12" rx="6" fill="currentColor"/>
<rect x="220" y="440" width="12" height="12" rx="6" fill="currentColor"/>
<rect x="220" y="484" width="12" height="12" rx="6" fill="currentColor"/>
</svg>
