<svg width="24" height="24" viewBox="0 0 24 24" fill="none" xmlns="http://www.w3.org/2000/svg">
<path d="M14.7001 6.29974C14.5169 6.48666 14.4142 6.73798 14.4142 6.99974C14.4142 7.26149 14.5169 7.51281 14.7001 7.69974L16.3001 9.29974C16.487 9.48296 16.7383 9.58559 17.0001 9.58559C17.2619 9.58559 17.5132 9.48296 17.7001 9.29974L21.4701 5.52974C21.9729 6.64092 22.1252 7.87897 21.9066 9.07888C21.6879 10.2788 21.1088 11.3836 20.2464 12.246C19.3839 13.1084 18.2792 13.6876 17.0792 13.9062C15.8793 14.1248 14.6413 13.9726 13.5301 13.4697L6.6201 20.3797C6.22227 20.7776 5.68271 21.0011 5.1201 21.0011C4.55749 21.0011 4.01792 20.7776 3.6201 20.3797C3.22227 19.9819 2.99878 19.4423 2.99878 18.8797C2.99878 18.3171 3.22227 17.7776 3.6201 17.3797L10.5301 10.4697C10.0273 9.35855 9.87502 8.1205 10.0936 6.92059C10.3123 5.72068 10.8914 4.61589 11.7538 3.75346C12.6163 2.89102 13.721 2.3119 14.921 2.09328C16.1209 1.87465 17.3589 2.0269 18.4701 2.52974L14.7101 6.28974L14.7001 6.29974Z" stroke="currentColor" stroke-width="2" stroke-linecap="round" stroke-linejoin="round"/>
</svg>
