<svg width="48" height="49" viewBox="0 0 48 49" fill="none" xmlns="http://www.w3.org/2000/svg">
<path d="M34.3734 24.0562V36.0562L23.9734 42.0562V30.0562L34.3734 24.0562Z" fill="currentColor" stroke="currentColor" stroke-linejoin="bevel"/>
<path d="M23.9734 30.0562V42.0562L13.5734 48.0562V36.0562L23.9734 30.0562Z" fill="currentColor" stroke="currentColor" stroke-linejoin="bevel"/>
<path d="M13.5734 48.0562L3.20001 42.0562V30.0562L13.5734 36.0562V48.0562Z" fill="currentColor" stroke="currentColor"  stroke-linejoin="bevel"/>
<path d="M13.5734 12.0562L23.9734 6.05615L34.3734 12.0562L23.9734 18.0562L13.5734 12.0562Z" fill="currentColor" stroke="currentColor" stroke-linejoin="bevel"/>
<path d="M23.9734 18.0562L34.3734 12.0562L44.7467 18.0562L34.3734 24.0562L23.9734 18.0562Z" fill="currentColor" stroke="currentColor" stroke-linejoin="bevel"/>
<path d="M44.7467 18.0562V30.0562L34.3734 36.0562V24.0562L44.7467 18.0562Z" fill="currentColor" stroke="currentColor" stroke-linejoin="bevel"/>
<path d="M13.5734 36.0562L3.20001 30.0562V18.0562L13.5734 24.0562V36.0562Z" fill="currentColor" stroke="currentColor" stroke-linejoin="bevel"/>
<path d="M13.5734 24.0562L3.20001 18.0562V6.05615L13.5734 12.0562V24.0562Z" fill="currentColor" stroke="currentColor" stroke-linejoin="bevel"/>
<path d="M3.20001 6.05615L13.5734 0.0561523L23.9734 6.05615L13.5734 12.0562L3.20001 6.05615Z" fill="currentColor" stroke="currentColor" stroke-linejoin="bevel"/>
</svg>